<svg width="21" height="46" viewBox="0 0 21 46" fill="none" xmlns="http://www.w3.org/2000/svg" preserveAspectRatio="none">
<g id="Group">
<g id="Vector">
<path d="M9.32688 24.9045V1.68763L9.31842 1.6733C10.0501 1.23196 10.8116 0.843157 11.5974 0.509766L11.6062 0.531057V24.9053C16.2357 25.4455 19.8869 29.1342 20.4166 33.8082C20.4915 34.4662 20.5026 35.13 20.4496 35.7902C19.8604 35.8483 19.2633 35.8776 18.6585 35.878C12.3295 35.878 6.75363 32.6232 3.48483 27.6817C5.0703 26.1309 7.12046 25.1542 9.31451 24.9045H9.32688Z" fill="white"/>
<path d="M20.4487 35.7902C20.068 40.5085 16.4302 44.454 11.5933 45.0123C6.09132 45.6475 1.12099 41.6608 0.491614 36.108C0.123466 32.8588 1.32361 29.7933 3.48483 27.6817C6.75363 32.6232 12.3295 35.878 18.6585 35.878C19.2625 35.878 19.8589 35.8487 20.4487 35.7902Z" fill="white"/>
</g>

</g>
</svg>