<svg width="36" height="58" viewBox="0 0 36 58" fill="none" xmlns="http://www.w3.org/2000/svg" preserveAspectRatio="none">
<g id="Group">
<g id="Vector">
<path d="M18.3017 0.642947L17.9215 1.93928L17.9591 39.5414L18.341 39.9217L35.7849 29.5869L18.3017 0.642947Z" fill="white"/>
<path d="M18.3017 0.642947L0.875492 29.6219L18.341 39.9217L18.3221 21.6706L18.3017 0.642947Z" fill="white"/>
<path d="M18.3435 43.2269L18.1287 43.4893L18.1421 56.8838L18.3578 57.5113L35.798 32.8974L18.3435 43.2269Z" fill="white"/>
<path d="M18.3578 57.5113L18.3435 43.2269L0.878805 32.9324L18.3578 57.5113Z" fill="white"/>
<path d="M18.3425 39.9221L35.7864 29.5873L18.3243 21.6711L18.3425 39.9221Z" fill="white"/>
<path d="M0.875492 29.6219L18.341 39.9217L18.3221 21.6706L0.875492 29.6219Z" fill="white"/>
</g>

</g>
</svg>